# xmcd
#
# Track frame offsets: 
#        150
#        7275
#        28926
#        47499
#        72638
#        80490
#        103306
#        128197
#        146357
#        161709
#        178783
#        185072
#        204911
#        219598
#        235719
#        256707
#        262200
#        273233
#
# Disc length: 3654 seconds
#
# Revision: 0
# Processed by: cddbd v1.5.2PL0 Copyright (c) Steve Scherf et al.
# Submitted via: ExactAudioCopy v1.3
#
DISCID=120e4412
DTITLE=Various Artist - Jack Emerson Benefit 1 (2003.12.12)
DYEAR=2003
DGENRE=Rock
TTITLE0=Webb Wilder - Intro
TTITLE1=Tim Krekel and the Sluggers - Sunshine Baby
TTITLE2=Tim Krekel and the Sluggers - In That Magic Moment
TTITLE3=Tim Krekel and the Sluggers - I Can't Help Myself
TTITLE4=Webb Wilder - Jack Emerson Bio
TTITLE5=Webb Wilder - Human Cannonball
TTITLE6=Webb Wilder - Big Time
TTITLE7=Webb Wilder - Tough it Out
TTITLE8=Webb Wilder - Lookin' For Me
TTITLE9=Webb Wilder - Jumpin' Jack Flash
TTITLE10=Webb Wilder - Talking
TTITLE11=Steve Forbert w Mark Stuart - I Blinked Once
TTITLE12=Steve Forbert w Mark Stuart - 19th Nervous Breakdown
TTITLE13=Steve Forbert w Mark Stuart - Oh Yesterday
TTITLE14=Steve Forbert w Mark Stuart - Romeo's Tune
TTITLE15=Webb Wilder - Talking
TTITLE16=Bill Lloyd - This is Where I Belong
TTITLE17=Webb Wilder - Talking
EXTD=
EXTT0=
EXTT1=
EXTT2=
EXTT3=
EXTT4=
EXTT5=
EXTT6=
EXTT7=
EXTT8=
EXTT9=
EXTT10=
EXTT11=
EXTT12=
EXTT13=
EXTT14=
EXTT15=
EXTT16=
EXTT17=
PLAYORDER=
